vt  0   0

v   0.5   0.5   0.5
v   0.5   0.5   -0.5
v   -0.5  0.5   0.5
v   -0.5  0.5   -0.5
vn  0   1   0

f   1/1/1   2/1/1   3/1/1
f   3/1/1   2/1/1   4/1/1

v   0.5   -0.5  0.5
v   0.5   -0.5  -0.5
v   -0.5  -0.5  0.5
v   -0.5  -0.5  -0.5
vn  0.0   -1.0   0.0

f   6/1/2   5/1/2   7/1/2
f   6/1/2   7/1/2   8/1/2

vn  1   0   0
f   2/1/3   1/1/3   5/1/3
f   2/1/3   5/1/3   6/1/3

vn  -1  0   0
f   3/1/4   4/1/4   7/1/4
f   4/1/4   8/1/4   7/1/4

vn  0   0   1
f   1/1/5   3/1/5   7/1/5
f   5/1/5   1/1/5   7/1/5

vn  0   0   -1
f   4/1/6   2/1/6   6/1/6
f   4/1/6   6/1/6   8/1/6